<svg width="1009" height="770" xmlns="http://www.w3.org/2000/svg" preserveAspectRatio="xMidYMid meet">
 <metadata>Created by potrace 1.15, written by Peter Selinger 2001-2017</metadata>

 <g>
  <title>background</title>
  <rect fill="none" id="canvas_background" height="772" width="1011" y="-1" x="-1"/>
 </g>
 <g>
  <title>Layer 1</title>
  <g id="svg_1" fill="#000000" transform="translate(0,1064) scale(0.10000000149011612,-0.10000000149011612) ">
   <path fill="#febf10" id="svg_2" d="m4025.09322,10594.4523c-26,-23 -26,-26 -17,-84c30,-195 62,-411 71,-485c17,-135 40,-267 66,-380c14,-58 29,-127 34,-155c5,-27 19,-86 30,-130c21,-82 31,-144 56,-350c22,-185 25,-198 49,-227c23,-27 45,-104 45,-156c0,-15 4,-42 10,-61c5,-18 10,-70 11,-115c0,-44 5,-99 9,-121c5,-22 10,-98 11,-170c3,-150 14,-188 56,-183c14,2 35,14 45,28c18,24 18,35 8,180c-19,278 -34,429 -51,527c-6,32 -24,139 -39,238c-16,99 -33,200 -38,225c-5,25 -22,117 -37,205c-15,88 -36,192 -46,230c-11,39 -26,104 -34,145c-7,41 -20,100 -28,130c-8,31 -18,104 -22,163c-6,83 -11,109 -23,116c-23,13 -42,122 -50,288c-4,78 -10,144 -13,148c-4,3 -22,8 -41,11c-27,5 -40,1 -62,-17z"/>
   <path fill="#febf10" id="svg_3" d="m6629.09322,10420.4523l-24,-25l21,-28c16,-21 28,-27 54,-25c29,1 59,23 59,44c0,16 -37,49 -60,54c-19,5 -32,0 -50,-20z"/>
   <path fill="#febf10" id="svg_4" d="m7448.09322,10383.4523c-9,-7 -31,-40 -49,-73c-42,-76 -121,-211 -172,-292c-21,-34 -38,-65 -38,-67c0,-3 -13,-27 -29,-54c-143,-243 -401,-743 -458,-887c-19,-49 -44,-110 -55,-135c-31,-68 -118,-329 -118,-354c0,-51 57,-63 87,-18c10,15 32,65 47,112c16,47 39,111 52,142c13,32 31,79 40,105c16,46 41,104 89,208c12,28 31,68 41,90c33,76 94,200 117,240c24,40 107,194 135,250c8,17 23,41 32,55c9,14 33,54 52,90c20,36 49,90 65,120c17,30 39,69 49,86c11,17 32,53 48,80c17,27 60,95 98,152c63,97 79,134 60,146c-22,13 -78,16 -93,4z"/>
   <path fill="#febf10" id="svg_5" d="m4915.09322,10004.4523c-22,-32 -20,-46 8,-64c37,-24 79,-16 90,18c12,33 -4,54 -50,63c-26,5 -35,2 -48,-17z"/>
   <path fill="#febf10" id="svg_6" d="m8074.09322,9951.4523c-19,-28 -9,-58 26,-76c25,-14 50,-6 78,24l21,23l-21,26c-28,36 -82,38 -104,3z"/>
   <path fill="#febf10" id="svg_7" d="m5715.09322,9934.4523c-21,-25 -26,-41 -26,-87c0,-49 -14,-150 -51,-357c-15,-87 -56,-283 -85,-406c-27,-116 -44,-212 -48,-274c-2,-22 -8,-56 -15,-76c-6,-19 -12,-80 -14,-134c-2,-95 -1,-98 24,-117c22,-16 30,-18 48,-9c27,15 51,72 51,123c0,55 27,230 66,428c9,47 22,121 30,165c7,44 18,101 24,128c22,103 29,137 53,277c32,185 42,307 28,343c-15,38 -51,36 -85,-4z"/>
   <path fill="#febf10" id="svg_8" d="m6319.09322,9673.4523c-25,-27 -25,-40 -2,-61c36,-33 102,-14 102,28c0,26 -33,55 -62,55c-9,0 -26,-10 -38,-22z"/>
   <path fill="#febf10" id="svg_9" d="m3355.09322,9569.4523c-25,-24 -19,-52 15,-73c35,-21 65,-17 80,10c12,23 -2,53 -31,69c-26,14 -46,13 -64,-6z"/>
   <path fill="#febf10" id="svg_10" d="m8804.09322,9465.4523c-52,-14 -331,-207 -399,-276c-12,-12 -57,-52 -101,-90c-90,-78 -381,-367 -437,-434c-20,-25 -60,-70 -88,-100c-117,-126 -158,-215 -115,-246c45,-33 49,-30 204,161c54,66 122,145 151,175c29,30 80,84 114,119c33,35 68,78 76,95c8,17 21,31 27,31c20,0 53,33 53,53c0,18 78,102 95,102c13,1 81,65 94,89c6,11 24,22 40,26c16,3 41,17 56,31c14,13 28,24 30,24c3,0 31,20 64,45c32,25 68,45 79,45c10,0 27,9 37,20c10,11 25,20 34,20c31,1 53,28 56,68c3,37 1,40 -24,44c-14,2 -35,1 -46,-2z"/>
   <path fill="#febf10" id="svg_11" d="m4878.09322,9204.4523c-24,-46 26,-88 80,-68c33,13 37,37 11,65c-30,31 -75,32 -91,3z"/>
   <path fill="#febf10" id="svg_12" d="m7431.09322,9122.4523c-27,-29 -27,-34 1,-58c48,-40 116,-13 96,39c-18,48 -62,57 -97,19z"/>
   <path fill="#febf10" id="svg_13" d="m9321.09322,8912.4523c-29,-31 -28,-40 9,-71c35,-30 56,-32 87,-10c28,19 28,44 1,78c-26,33 -68,34 -97,3z"/>
   <path fill="#febf10" id="svg_14" d="m3644.09322,8871.4523c-19,-28 -12,-50 21,-65c31,-14 84,10 84,38c0,48 -78,69 -105,27z"/>
   <path fill="#febf10" id="svg_15" d="m5949.09322,8782.4523c-36,-18 -39,-63 -5,-79c49,-22 121,27 92,65c-17,23 -58,29 -87,14z"/>
   <path fill="#febf10" id="svg_16" d="m2922.09322,8734.4523c-18,-12 -33,-27 -33,-34c0,-8 25,-42 56,-77c49,-57 131,-174 267,-385c26,-40 47,-75 47,-79c0,-20 155,-208 233,-283c83,-79 103,-88 136,-64c47,36 40,61 -41,145c-40,41 -88,95 -105,119c-18,24 -53,69 -78,99c-24,30 -70,98 -100,150c-31,52 -72,115 -91,140c-19,25 -37,52 -41,60c-13,29 -95,135 -140,183c-50,53 -64,56 -110,26z"/>
   <path fill="#febf10" id="svg_17" d="m7042.09322,8585.4523c-36,-15 -40,-50 -9,-77c34,-29 70,-29 90,-1c21,30 20,44 -4,68c-21,21 -42,24 -77,10z"/>
   <path fill="#febf10" id="svg_18" d="m4860.09322,8536.4523c-17,-16 -31,-33 -31,-38c1,-30 48,-55 85,-45c45,12 52,34 26,76c-27,44 -40,45 -80,7z"/>
   <path fill="#febf10" id="svg_19" d="m8621.09322,8438.4523c-12,-3 -30,-16 -39,-29c-15,-24 -15,-26 12,-54c35,-37 58,-38 91,-5c24,24 26,56 5,76c-10,11 -44,16 -69,12z"/>
   <path fill="#febf10" id="svg_20" d="m2385.09322,8379.4523c-22,-21 -20,-41 5,-54c16,-9 26,-8 45,5c29,19 31,41 5,55c-27,14 -37,13 -55,-6z"/>
   <path fill="#febf10" id="svg_21" d="m5495.09322,8382.4523c-10,-7 -22,-31 -26,-53c-5,-21 -29,-106 -55,-188c-25,-83 -64,-220 -85,-305c-21,-86 -61,-223 -88,-306c-85,-256 -125,-386 -142,-455c-5,-19 -14,-53 -20,-75c-22,-78 -28,-105 -84,-354c-20,-90 -42,-173 -47,-183c-10,-18 -13,-16 -39,25c-49,78 -227,311 -271,356c-14,14 -56,62 -94,106c-37,44 -76,86 -86,93c-10,7 -31,26 -48,42c-54,54 -100,37 -130,-50c-11,-30 -25,-56 -33,-58c-7,-1 -30,21 -51,50c-60,86 -127,187 -127,192c0,13 -92,125 -144,176c-31,30 -56,60 -56,66c0,20 -50,54 -80,54c-15,0 -36,-10 -50,-25c-14,-15 -35,-25 -51,-25c-14,0 -32,-7 -39,-15c-16,-19 -47,-131 -76,-278c-13,-66 -30,-144 -38,-175c-8,-32 -24,-97 -36,-147c-12,-49 -37,-148 -56,-220c-29,-110 -91,-373 -126,-535c-6,-25 -14,-61 -18,-80c-5,-19 -16,-66 -25,-105c-9,-38 -20,-74 -25,-79c-6,-6 -27,0 -57,16c-27,14 -75,40 -108,58c-33,17 -64,35 -70,40c-5,4 -86,47 -180,95c-93,48 -199,104 -235,123c-36,20 -105,55 -154,79c-98,48 -162,90 -215,140c-26,24 -44,33 -70,33c-52,0 -71,-23 -65,-79c6,-54 24,-122 36,-135c4,-6 8,-25 8,-43c0,-19 9,-64 21,-101c44,-146 94,-304 139,-442c26,-80 60,-185 75,-235c16,-49 37,-101 47,-113c9,-13 29,-63 44,-110c14,-48 30,-97 35,-110c5,-13 9,-35 9,-50c0,-28 33,-152 49,-187c5,-11 26,-78 46,-150c20,-71 45,-161 56,-199c17,-56 18,-74 9,-97c-13,-30 -7,-49 16,-49c15,0 35,-39 53,-105c6,-22 27,-89 46,-150c19,-60 35,-118 35,-127c0,-9 5,-20 10,-23c6,-3 10,-16 10,-28c0,-24 21,-91 69,-227c17,-47 31,-91 31,-98c0,-8 6,-28 14,-45c7,-18 22,-59 31,-92c10,-33 22,-67 26,-75c4,-8 18,-42 30,-75c13,-33 27,-64 31,-70c4,-5 8,-17 8,-27c0,-12 18,-27 52,-43c56,-27 83,-30 122,-16c18,8 34,5 65,-10c22,-10 44,-19 49,-19c5,0 34,-11 63,-24c30,-13 92,-29 139,-36c102,-14 512,-15 589,0c29,5 83,10 120,10c36,0 102,5 146,10c44,6 148,19 230,30c149,19 223,32 405,71c52,12 127,28 165,36c74,16 222,59 340,99c39,13 76,24 83,24c7,0 32,9 54,20c23,11 46,20 51,20c5,0 57,23 116,51c58,28 132,60 165,70c32,10 86,32 120,48c33,17 81,37 106,45c25,8 88,36 140,62c52,25 133,64 180,85c47,22 94,45 105,51c46,27 123,66 145,73c12,4 48,26 79,50c31,23 79,55 106,70c63,36 113,72 146,105c25,24 78,72 199,178c30,27 84,71 120,98c206,156 432,378 566,554c27,36 77,92 111,124c35,33 63,64 63,70c0,5 -8,27 -17,48c-14,31 -22,38 -44,38c-15,0 -34,-8 -41,-17c-14,-18 -403,-401 -698,-689c-258,-250 -406,-369 -581,-462c-30,-16 -94,-53 -144,-82c-107,-62 -382,-197 -492,-241c-75,-30 -211,-78 -283,-100c-19,-6 -44,-14 -55,-19c-11,-5 -65,-23 -120,-39c-55,-16 -136,-41 -180,-54c-44,-14 -116,-35 -160,-46c-44,-11 -123,-32 -175,-47c-52,-14 -117,-33 -145,-41c-27,-8 -72,-18 -100,-23c-53,-11 -103,-22 -175,-40c-25,-6 -92,-13 -150,-15c-97,-3 -283,-25 -355,-42c-16,-4 -33,-6 -36,-5c-3,0 -62,4 -130,8c-68,3 -132,10 -141,15c-9,5 -36,9 -60,9c-24,0 -79,4 -123,10c-44,5 -161,14 -260,20c-99,5 -206,16 -238,25c-32,8 -66,15 -76,15c-26,0 -45,27 -64,89c-25,80 -25,81 36,81c147,0 359,110 349,180c-1,8 11,21 27,28c30,13 46,37 35,53c-3,5 -13,5 -24,-1c-10,-5 -36,-10 -58,-10c-47,0 -209,-50 -310,-96c-61,-28 -77,-31 -97,-22c-27,12 -53,64 -39,78c11,11 103,68 174,108c149,84 135,102 -27,37c-152,-62 -170,-63 -201,-7c-31,56 -20,72 54,72c79,0 138,17 244,69c71,35 99,55 110,77c9,17 26,44 39,60l23,29l-22,3c-11,2 -27,-1 -34,-7c-18,-15 -152,-70 -201,-82c-114,-30 -174,-38 -228,-32c-31,3 -60,10 -63,15c-9,14 16,38 40,38c11,0 35,7 51,16c17,9 69,37 118,61c79,39 99,58 81,76c-4,3 -20,-1 -37,-10c-37,-19 -232,-73 -264,-73c-28,0 -45,29 -32,53c6,9 17,17 25,17c20,0 174,75 242,117c29,18 55,33 58,33c3,0 33,19 67,41c34,23 71,45 82,49c23,9 142,96 151,112c18,28 -19,24 -86,-12c-41,-22 -82,-39 -90,-40c-9,0 -92,-39 -185,-86c-201,-101 -277,-129 -305,-114c-11,6 -20,16 -20,23c0,7 -3,22 -6,35c-6,19 0,25 42,43c27,12 54,28 62,35c7,8 20,14 27,14c17,0 75,48 75,62c0,14 -72,1 -158,-28c-59,-21 -76,-23 -88,-13c-29,24 -10,41 81,70c113,37 162,61 299,148c115,74 146,101 146,126c0,20 -12,19 -41,-4c-14,-10 -64,-40 -113,-65c-84,-44 -126,-56 -126,-37c0,21 -35,20 -69,-2c-56,-36 -154,-67 -215,-67c-39,0 -43,7 -81,145c-15,55 -32,111 -37,125c-6,14 -14,43 -18,65c-5,22 -16,67 -25,100c-9,33 -23,87 -32,120c-8,33 -28,92 -44,130c-15,39 -38,102 -50,140c-12,39 -27,88 -34,110c-7,22 -23,83 -35,135c-12,52 -26,104 -30,115c-5,11 -11,31 -14,45c-26,128 -41,173 -63,187c-13,8 -23,22 -23,29c0,17 4,17 28,5c9,-6 49,-24 87,-42c39,-17 90,-46 115,-64c49,-35 99,-55 138,-55c26,0 57,-14 338,-151c100,-49 188,-89 195,-89c8,0 37,-18 64,-40c60,-47 88,-61 136,-63c47,-3 185,-86 257,-155c42,-41 61,-52 81,-50c26,3 27,5 49,93c16,63 78,223 121,310c64,132 101,213 101,225c0,6 6,21 14,33c13,20 52,107 108,242c11,28 24,58 29,67c5,10 9,23 9,29c0,6 13,37 29,68c16,31 32,72 36,91c4,19 14,45 22,58c8,13 22,49 32,80c25,78 79,189 94,195c13,5 63,-51 132,-148c22,-31 56,-76 75,-98c19,-23 40,-49 45,-58c6,-9 31,-45 58,-80c26,-34 47,-66 47,-70c0,-7 125,-195 205,-309c21,-30 73,-97 114,-149c42,-51 82,-103 90,-115c8,-13 34,-33 59,-46l44,-24l17,21c10,11 23,47 30,79c7,33 17,68 22,79c23,56 40,123 48,198c5,45 15,96 21,112c11,28 27,101 50,220c5,28 16,77 26,110c9,33 20,76 24,95c9,40 66,260 80,305c4,17 15,53 23,80c8,28 22,77 31,110c9,33 19,67 23,75c3,8 20,55 37,104c17,49 36,91 41,93c10,3 52,-50 169,-213c23,-33 104,-131 180,-217c75,-86 136,-160 136,-164c0,-4 15,-23 34,-43c19,-19 47,-53 62,-76c16,-22 48,-67 72,-100c69,-95 90,-130 97,-162c8,-38 20,-48 66,-57c31,-6 39,-3 56,19c11,14 28,49 37,78c10,29 23,67 31,83c7,17 30,70 50,118c20,49 44,105 55,125c34,68 89,197 95,225c4,15 15,32 25,37c11,6 20,27 24,60c4,28 11,61 16,73c5,12 30,76 55,142c95,247 110,282 163,385c30,58 63,121 73,141c17,33 53,57 63,41c2,-4 7,-41 10,-82c6,-65 37,-221 66,-330c25,-94 53,-208 57,-230c17,-97 69,-270 133,-440c17,-47 37,-98 42,-115c6,-16 15,-35 19,-41c14,-18 69,-178 69,-201c0,-12 -11,-46 -24,-75c-23,-53 -35,-66 -266,-286c-67,-64 -82,-84 -73,-93c10,-10 18,-10 40,0c16,7 48,20 72,28c74,25 112,55 210,167c51,58 100,106 107,106c14,0 34,-38 34,-65c0,-16 -126,-140 -189,-187c-23,-16 -41,-34 -41,-39c0,-24 51,-3 137,57c52,36 101,68 108,71c15,5 45,-45 45,-76c0,-11 -8,-33 -17,-50c-25,-43 -193,-204 -293,-281c-90,-69 -108,-83 -148,-116l-26,-21l38,-13c54,-18 119,-8 168,26c22,16 48,34 57,39c52,32 135,104 199,171c46,48 77,73 83,67c5,-5 14,-25 19,-44c10,-34 10,-34 -95,-137c-96,-93 -115,-122 -83,-122c18,0 131,76 163,110c34,36 52,38 60,8c3,-13 11,-40 17,-61c14,-45 2,-65 -30,-48c-23,12 -52,-13 -52,-47c0,-37 -43,-95 -154,-206c-75,-75 -129,-120 -175,-145c-89,-48 -125,-77 -117,-96c9,-24 48,-18 154,22c92,35 114,49 246,157c21,17 67,68 103,114c36,45 69,80 74,76c15,-9 10,-34 -11,-61c-23,-30 -18,-43 15,-43l24,0l-25,-37c-56,-84 -140,-166 -286,-280c-141,-111 -218,-186 -218,-212c0,-19 56,-12 75,9c10,11 24,20 32,20c11,0 111,66 150,100c7,5 15,10 18,10c3,0 42,29 86,65c43,35 92,73 107,82c15,10 38,29 52,43c73,72 88,82 110,75c13,-4 30,-25 41,-49c22,-51 55,-70 90,-52c30,14 35,48 16,95c-9,20 -25,68 -37,106c-12,39 -30,86 -40,105c-10,19 -24,53 -32,75c-9,22 -25,65 -38,95c-12,30 -28,73 -35,95c-12,40 -15,50 -55,140c-12,28 -37,91 -55,140c-17,50 -42,111 -54,137c-11,26 -21,51 -21,56c0,5 -6,22 -14,38c-31,66 -47,105 -90,229c-48,136 -66,190 -74,215c-2,8 -24,71 -49,140c-73,207 -163,481 -163,494c0,7 -9,25 -20,39c-11,14 -20,39 -20,55c0,17 -4,34 -10,37c-5,3 -10,21 -10,40c0,19 -5,46 -11,62c-11,29 -15,47 -42,188c-19,96 -40,395 -32,451c7,49 -11,84 -48,97c-22,7 -32,5 -49,-9c-42,-39 -112,-141 -163,-238c-29,-56 -68,-131 -88,-167c-19,-36 -38,-77 -42,-90c-4,-13 -19,-49 -32,-79c-14,-30 -36,-86 -50,-125c-65,-186 -117,-305 -132,-305c-18,1 -97,72 -301,273c-80,79 -195,187 -255,239c-61,53 -124,111 -140,130c-17,19 -38,39 -48,45c-11,5 -60,50 -110,100c-93,90 -217,191 -334,271c-36,25 -80,28 -107,9zm124,-329c0,-15 -41,-8 -47,8c-9,24 19,37 35,17c6,-9 12,-20 12,-25zm160,-27c0,-5 60,-72 133,-148c73,-76 150,-158 171,-183c145,-168 315,-344 439,-457c5,-5 46,-48 92,-97l83,-90l-22,-50c-74,-166 -146,-292 -158,-276c-84,110 -162,200 -178,205c-11,3 -20,10 -20,15c0,5 -9,11 -19,15c-11,3 -31,25 -45,48c-13,23 -52,71 -85,107c-36,38 -60,74 -61,88c0,12 -6,22 -12,22c-15,0 -131,124 -178,188c-37,52 -76,116 -95,160c-9,17 -20,32 -25,32c-6,0 -15,11 -20,25c-22,58 -116,59 -143,2c-20,-42 -64,-159 -84,-222c-9,-27 -19,-59 -23,-70c-23,-60 -80,-244 -99,-320c-5,-22 -15,-58 -21,-80c-6,-22 -15,-56 -20,-75c-5,-19 -20,-75 -35,-125c-38,-127 -50,-176 -75,-290c-31,-147 -66,-265 -83,-282c-4,-3 -7,-15 -7,-25c0,-31 -37,-21 -60,17c-12,19 -25,35 -29,35c-11,0 -51,88 -51,112c0,12 8,48 17,81c18,57 18,58 53,56c51,-3 90,19 90,49c0,31 -26,51 -64,52c-28,0 -29,1 -23,43c10,75 24,100 50,93c31,-7 99,11 115,32c6,9 12,29 12,45c0,17 8,36 22,46c25,21 19,51 -10,51c-11,0 -43,-10 -71,-22c-58,-24 -77,-17 -58,22c9,17 29,29 74,42c59,17 63,21 74,58c11,36 10,42 -7,55c-13,11 -32,14 -62,10l-44,-5l7,43c8,50 32,132 48,166c12,24 40,39 112,61c53,15 103,41 109,56c8,22 -19,33 -92,40c-47,5 -72,11 -72,19c0,21 50,149 63,161c7,6 46,23 87,38c125,45 145,69 97,115c-20,18 -28,20 -51,11c-15,-5 -41,-10 -57,-10c-35,0 -35,4 7,106c23,56 31,65 86,98c34,20 69,36 79,36c11,0 24,9 31,20c7,11 22,20 34,20c11,0 29,9 39,20c19,21 35,26 35,11zm-1973,-759c10,-16 36,-57 58,-91c22,-34 77,-119 123,-189c94,-142 123,-196 142,-264l12,-47l-72,-178c-40,-98 -86,-206 -102,-241c-15,-34 -28,-65 -28,-67c0,-3 -21,-51 -46,-107c-26,-57 -69,-157 -96,-223c-90,-219 -99,-236 -117,-243c-8,-3 -33,5 -55,17c-23,13 -72,39 -109,58c-55,28 -66,37 -57,48c6,8 25,15 43,17c24,2 32,9 38,30c5,18 3,31 -7,39c-8,6 -11,15 -8,20c3,5 0,17 -6,28c-8,16 -17,19 -45,14c-40,-6 -40,-7 -23,83l11,63l46,14c25,8 57,17 71,21c15,3 36,23 52,48c38,59 25,70 -67,58c-38,-5 -72,-7 -77,-4c-7,5 9,63 23,78c11,13 79,36 105,36c28,0 54,31 57,66l2,29l-65,0l-65,0l3,44c4,65 13,75 81,90c75,17 102,44 92,93c-7,31 -9,33 -46,30c-21,-2 -47,-8 -57,-13c-26,-14 -41,-1 -33,30c10,40 26,53 55,47c15,-3 36,1 46,8c10,7 31,16 45,19c19,5 28,15 32,36c3,16 14,36 23,46c41,40 -31,64 -123,41c-31,-7 -33,-6 -33,20c0,16 7,47 16,69c14,38 19,42 71,54c83,19 124,41 118,63c-4,9 -1,27 5,39c17,31 -10,57 -42,42c-51,-25 -91,-34 -99,-22c-7,11 36,142 54,167c15,20 34,14 54,-16zm2920,-77c8,-23 -4,-30 -22,-12c-19,20 -19,27 0,27c9,0 18,-7 22,-15zm-3097,-4020c0,-8 -4,-15 -10,-15c-5,0 -10,7 -10,15c0,8 5,15 10,15c6,0 10,-7 10,-15z"/>
   <path fill="#febf10" id="svg_22" d="m1459.09322,8266.4523c-14,-4 -25,-12 -24,-19c1,-7 2,-20 3,-29c1,-17 106,-93 129,-93c20,0 176,-82 257,-136c67,-44 138,-98 325,-251c159,-129 460,-425 532,-523c61,-85 98,-151 107,-195c6,-25 12,-31 40,-33c27,-3 39,2 57,25c30,36 30,55 0,90c-13,15 -35,53 -50,83c-28,58 -164,224 -243,297c-27,24 -67,61 -90,83c-23,22 -48,40 -55,40c-18,0 -108,86 -108,103c0,18 -72,81 -122,108c-21,11 -38,23 -38,28c0,5 -13,16 -29,24c-36,18 -97,66 -165,130c-29,26 -68,58 -88,70c-20,12 -62,40 -94,61c-33,22 -93,55 -134,74c-41,19 -86,43 -99,53c-24,19 -65,23 -111,10z"/>
   <path fill="#febf10" id="svg_23" d="m3953.09322,8200.4523c-33,-33 -29,-66 9,-79c66,-24 117,52 58,87c-37,22 -37,22 -67,-8z"/>
   <path fill="#febf10" id="svg_24" d="m9949.09322,8198.4523c-8,-2 -24,-9 -35,-14c-25,-11 -166,-59 -305,-104c-373,-120 -846,-291 -875,-317c-5,-4 -15,-8 -23,-8c-7,0 -63,-24 -125,-54c-62,-29 -132,-63 -157,-74c-90,-40 -166,-75 -220,-102c-30,-15 -71,-35 -90,-44c-62,-30 -65,-33 -68,-55c-2,-13 4,-31 14,-42c29,-32 72,-25 169,28c62,34 255,123 266,123c14,0 70,40 115,82c18,16 40,29 50,28c34,-4 43,0 76,28c54,46 124,69 112,37c-11,-28 21,-16 39,15c10,17 31,37 46,44c42,22 134,56 151,56c13,0 65,18 190,65c96,36 120,44 181,64c37,11 77,21 89,21c12,0 39,9 59,20c51,28 229,84 271,85c103,3 120,5 120,19c0,7 7,19 15,26c39,33 -12,90 -65,73z"/>
   <path fill="#febf10" id="svg_25" d="m2785.09322,7989.4523c-21,-21 -20,-31 5,-44c31,-17 74,13 59,40c-13,24 -43,26 -64,4z"/>
   <path fill="#febf10" id="svg_26" d="m7879.09322,7858.4523c-23,-9 -60,-45 -60,-59c0,-20 50,-54 80,-54c36,0 49,17 52,71c3,43 2,44 -27,46c-16,1 -37,-1 -45,-4z"/>
   <path fill="#febf10" id="svg_27" d="m1108.09322,7610.4523c-56,-30 -43,-75 21,-75c25,0 40,5 44,16c11,29 6,53 -13,64c-24,12 -20,12 -52,-5z"/>
   <path fill="#febf10" id="svg_28" d="m3141.09322,7477.4523c-28,-22 -20,-52 13,-52c22,0 55,28 55,47c0,10 -23,23 -38,23c-4,0 -17,-8 -30,-18z"/>
   <path fill="#febf10" id="svg_29" d="m1661.09322,7294.4523c-18,-7 -23,-15 -20,-35c5,-40 41,-49 75,-20c27,24 28,24 9,45c-21,23 -29,24 -64,10z"/>
   <path fill="#febf10" id="svg_30" d="m2266.09322,6887.4523c-21,-23 -21,-39 -3,-58c19,-18 31,-18 61,2c29,19 31,36 9,58c-21,21 -47,20 -67,-2z"/>
   <path fill="#febf10" id="svg_31" d="m1116.09322,6778.4523c-4,-3 -7,-21 -7,-40c0,-56 5,-59 570,-244c31,-10 101,-43 212,-100c48,-25 53,-24 77,8c25,31 20,58 -18,91c-30,27 -218,122 -241,122c-16,0 -157,43 -413,126c-136,44 -168,50 -180,37z"/>
   <path fill="#febf10" id="svg_32" d="m186.09322,6190.4523c-42,-14 -68,-41 -64,-65c3,-19 66,-40 92,-30c23,8 50,71 42,95c-8,18 -20,18 -70,0z"/>
   <path fill="#febf10" id="svg_33" d="m838.09322,6074.4523c-24,-24 -22,-36 13,-62c21,-15 30,-17 47,-8c33,18 42,44 25,69c-19,28 -58,28 -85,1z"/>
   <path fill="#febf10" id="svg_34" d="m1589.09322,6020.4523c-27,-29 -21,-52 17,-66c29,-11 85,24 76,48c-17,46 -59,54 -93,18z"/>
   <path fill="#febf10" id="svg_35" d="m1499.09322,5555.4523c-25,-5 -87,-15 -139,-24c-52,-9 -111,-23 -130,-32c-20,-10 -49,-21 -66,-25c-16,-4 -64,-16 -105,-28c-41,-11 -87,-21 -101,-21c-15,0 -32,-7 -39,-15c-7,-8 -26,-19 -44,-23c-40,-12 -301,-108 -346,-128c-19,-9 -78,-32 -130,-51c-96,-34 -276,-118 -336,-157c-34,-22 -43,-53 -22,-74c17,-17 42,-15 69,6c13,10 62,31 109,46c47,16 90,32 95,36c6,4 19,10 30,13c26,7 145,52 187,70c18,8 53,22 78,32c25,10 59,23 75,30c17,7 53,20 80,29c28,9 97,32 155,52c208,71 413,122 600,150c111,16 125,23 135,66c5,20 2,29 -12,36c-28,15 -94,20 -143,12z"/>
  </g>
 </g>
</svg>