<svg width="746" height="1280" xmlns="http://www.w3.org/2000/svg" preserveAspectRatio="xMidYMid meet">
 <metadata>Created by potrace 1.15, written by Peter Selinger 2001-2017</metadata>

 <g>
  <title>background</title>
  <rect fill="none" id="canvas_background" height="602" width="802" y="-1" x="-1"/>
 </g>
 <g>
  <title>Layer 1</title>
  <g id="svg_1" fill="#000000" transform="translate(0, 1280) scale(0.1, -0.1)">
   <path fill="#ca162c" id="svg_2" d="m6244,12719c-81,-100 -121,-159 -150,-224c-27,-63 -30,-61 74,-44c73,12 131,3 142,-21c80,-175 203,-297 388,-383c89,-41 208,-50 268,-19c72,37 73,48 7,66c-168,46 -334,133 -440,230c-126,115 -192,234 -216,386l-12,82l-61,-73z"/>
   <path fill="#ca162c" id="svg_3" d="m6463,12769l-31,-9l14,-63c22,-94 70,-185 133,-248c91,-90 198,-129 358,-129l93,0l0,58c0,105 -49,212 -133,289c-85,78 -185,113 -316,112c-47,0 -100,-5 -118,-10z"/>
   <path fill="#ca162c" id="svg_4" d="m7173,12373c-24,-36 -33,-253 -12,-253c50,1 237,148 214,168c-33,29 -118,84 -149,97c-35,15 -36,14 -53,-12z"/>
   <path fill="#ca162c" id="svg_5" d="m5830,12171c0,-37 -21,-66 -70,-100c-84,-57 -107,-95 -94,-159l6,-30l52,26c40,21 65,26 116,26c104,0 161,-35 380,-231c185,-166 292,-201 428,-139c35,16 59,32 55,36c-4,4 -26,13 -48,20c-62,20 -231,107 -320,164c-98,64 -212,156 -368,295c-65,58 -123,108 -128,109c-5,2 -9,-5 -9,-17z"/>
   <path fill="#ca162c" id="svg_6" d="m6981,11914c-17,-67 -81,-184 -100,-184c-3,0 -6,24 -6,54c0,61 -16,86 -77,117c-46,23 -48,23 -48,2c0,-10 -14,-49 -30,-88c-17,-38 -30,-81 -30,-95c0,-33 45,-78 87,-86c112,-22 333,109 333,197c0,40 -28,79 -78,107l-40,22l-11,-46z"/>
   <path fill="#ca162c" id="svg_7" d="m5451,11618c-98,-37 -167,-131 -146,-197c11,-36 79,-28 170,20c42,22 78,39 79,37c27,-42 120,-149 165,-191c135,-125 277,-197 401,-205l75,-4l-155,97c-189,119 -280,186 -347,258c-54,56 -115,146 -127,185c-9,28 -42,28 -115,0z"/>
   <path fill="#ca162c" id="svg_8" d="m6614,11391c-17,-11 -47,-45 -67,-78c-19,-32 -46,-68 -60,-81c-24,-23 -97,-42 -97,-26c0,5 16,33 35,61c19,29 35,59 35,67c0,19 -23,33 -28,17c-2,-7 -22,-32 -43,-57c-32,-38 -39,-53 -39,-89c0,-38 4,-46 33,-63c156,-97 336,3 364,204c4,34 2,48 -8,55c-24,15 -93,10 -125,-10z"/>
   <path fill="#ca162c" id="svg_9" d="m1885,11239c-455,-28 -779,-180 -1073,-504c-213,-235 -372,-550 -431,-856c-49,-254 -50,-460 -6,-794c14,-99 31,-241 40,-315c85,-728 338,-1322 922,-2163c57,-84 147,-222 198,-307c119,-198 148,-235 242,-311c173,-139 223,-206 223,-302l0,-47l-38,19c-55,28 -115,91 -203,217c-91,129 -149,186 -226,221c-51,24 -56,24 -71,9c-16,-16 -13,-20 36,-66c54,-52 66,-86 37,-110c-22,-18 -48,-4 -99,51c-26,28 -52,49 -59,46c-6,-2 -13,-22 -15,-44c-4,-52 25,-87 142,-173c69,-51 98,-82 112,-120c1,-3 -2,-15 -7,-28l-9,-23l-42,29c-43,30 -114,102 -266,270c-46,51 -87,92 -91,92c-4,0 -31,-53 -60,-117c-257,-570 -652,-1163 -1051,-1577c-61,-63 -76,-84 -55,-74c42,21 63,25 215,43c167,19 220,41 234,96c5,20 6,45 2,55c-6,16 -9,14 -22,-13c-15,-31 -65,-63 -98,-63c-22,0 -56,36 -56,60c0,29 33,57 82,70c66,18 91,37 78,60c-5,10 -10,28 -10,40c0,23 58,90 131,151c46,38 49,39 76,26c15,-8 65,-20 111,-26c126,-16 170,-48 203,-143l18,-53l-31,-3c-26,-3 -38,4 -68,37c-47,51 -66,54 -43,7c9,-19 13,-41 10,-50c-4,-9 -35,-29 -70,-45c-64,-29 -87,-57 -87,-104c0,-44 12,-47 75,-21c33,14 209,81 392,149c377,142 503,194 654,271c196,100 415,260 497,363c53,66 36,112 -59,169c-19,12 -44,30 -54,42c-18,20 -18,20 51,20c116,0 177,-40 288,-187c27,-36 51,-56 75,-64c57,-19 143,-64 281,-149c221,-136 323,-178 473,-196c31,-3 61,-12 65,-19c4,-7 33,-29 66,-50c37,-23 63,-48 69,-66c8,-20 16,-27 28,-24c62,20 168,35 250,35l97,0l16,-41c9,-22 25,-85 36,-139c18,-95 42,-164 61,-176c5,-3 9,3 9,14c0,10 25,58 55,105c67,103 76,140 46,198c-12,23 -21,42 -19,43c155,69 397,201 576,313c1024,644 1811,1647 2422,3088c214,507 265,671 289,935c28,303 -4,651 -83,890c-30,93 -131,312 -207,448c-177,317 -392,510 -650,582c-42,11 -75,16 -77,11c-15,-46 -109,-161 -232,-283c-180,-179 -208,-226 -245,-400c-4,-22 -20,-35 -76,-63c-38,-20 -101,-56 -139,-80c-61,-39 -70,-49 -70,-74c0,-56 -22,-136 -58,-211c-32,-66 -57,-96 -211,-251c-187,-188 -236,-254 -271,-366c-18,-57 -18,-66 -4,-107c20,-57 86,-119 187,-174c93,-51 151,-102 178,-153c26,-52 24,-66 -10,-74c-46,-10 -65,-40 -71,-109c-5,-59 -6,-62 -43,-80c-34,-16 -44,-17 -80,-6c-23,6 -57,23 -75,37l-32,24l12,-28c21,-51 39,-62 118,-73c86,-12 120,-30 120,-64c0,-37 -60,-56 -178,-56l-98,0l-13,38c-47,129 -154,207 -383,276c-166,50 -165,50 -195,-6c-39,-75 -40,-140 -4,-301c17,-76 31,-157 31,-180c0,-51 -39,-121 -162,-294c-124,-173 -162,-231 -198,-303c-18,-36 -33,-66 -35,-68c-5,-6 -156,53 -236,94c-184,92 -327,228 -481,457c-44,65 -78,120 -76,122c7,7 113,-36 158,-65c61,-39 98,-80 178,-195c81,-118 91,-130 97,-123c3,3 -3,30 -15,59c-11,30 -20,62 -20,72c0,33 53,-7 125,-93c76,-91 99,-110 135,-110c31,0 61,19 42,27c-34,14 -131,97 -165,141c-38,50 -96,150 -97,165c0,16 65,-37 167,-134c97,-93 145,-122 174,-104c6,5 -34,53 -105,124c-63,64 -136,143 -162,176c-54,70 -117,175 -110,183c6,5 135,-124 286,-285c67,-71 94,-94 128,-104c23,-7 45,-9 48,-6c12,12 -78,118 -166,195c-47,42 -130,121 -186,177c-85,84 -107,113 -142,185c-23,47 -44,103 -48,124l-7,39l44,-31c61,-41 156,-144 273,-295c144,-186 227,-256 321,-272l40,-7l-80,79c-45,43 -135,128 -202,190c-66,62 -142,141 -168,175c-45,59 -112,184 -103,193c8,8 93,-37 135,-71c24,-20 85,-91 135,-158c147,-196 204,-246 283,-246l36,0l-58,48c-72,61 -159,153 -289,307c-103,123 -296,315 -315,315c-7,0 -8,-7 -4,-17c31,-82 8,-100 -66,-54c-58,36 -69,38 -69,14c0,-46 -50,-121 -131,-198c-114,-108 -139,-141 -139,-181c0,-29 -4,-34 -23,-34c-12,0 -39,-9 -60,-19c-20,-10 -39,-16 -41,-12c-2,3 -12,33 -22,66c-10,33 -62,146 -115,252c-53,106 -107,220 -119,255c-22,67 -39,208 -24,207c5,0 35,-33 67,-72c31,-40 93,-115 138,-167c44,-52 97,-124 117,-160c19,-36 37,-67 38,-68c1,-2 31,15 66,39c77,52 186,160 256,254c59,80 232,367 232,385c0,30 -149,214 -354,440c-48,52 -111,127 -141,165l-55,71l37,84c20,47 43,95 51,108c34,52 108,65 217,37c72,-19 103,-38 224,-133c52,-40 115,-84 141,-97c63,-32 163,-49 232,-41c53,7 56,9 62,39c11,61 63,152 105,189c55,47 171,78 171,46c0,-25 102,-224 155,-304c102,-153 233,-244 362,-252c34,-2 75,-1 90,3c27,6 27,7 -16,26c-152,68 -358,250 -463,409c-63,96 -143,246 -160,302c-10,35 -9,39 35,101c58,81 116,131 175,151c25,9 49,16 54,16c14,0 9,-29 -12,-69c-22,-44 -19,-51 25,-51l32,0l6,118c10,177 42,263 117,306c29,17 52,21 134,21c62,0 101,-4 103,-11c11,-34 115,-174 172,-231c120,-123 218,-172 339,-173c78,0 91,9 38,28c-75,27 -168,101 -326,259c-90,91 -187,181 -216,200c-193,128 -407,105 -707,-76c-45,-27 -186,-126 -312,-220c-126,-93 -264,-191 -307,-216l-77,-47l-68,67c-46,45 -94,80 -148,107c-44,22 -134,74 -200,116c-156,97 -260,151 -416,212c-227,90 -532,160 -754,175c-181,11 -212,12 -330,4zm1726,-2842c16,-23 49,-70 73,-103c25,-35 58,-67 75,-75c41,-18 39,-29 -6,-29c-31,0 -44,8 -87,53c-45,46 -121,166 -142,221c-7,18 -5,18 25,-3c17,-13 45,-42 62,-64zm-1961,-2517c36,-29 212,-222 218,-241c6,-16 -52,-9 -85,10c-17,11 -50,44 -73,72c-41,52 -116,189 -104,189c3,0 23,-13 44,-30zm-435,-10c3,-6 67,-62 141,-126c167,-143 241,-239 274,-356l9,-29l-60,33c-80,42 -165,136 -218,240c-42,82 -43,82 -94,96c-86,22 -122,69 -90,122c18,32 28,37 38,20zm118,-334c126,-127 137,-141 121,-153c-10,-7 -25,-13 -33,-13c-9,0 -57,43 -107,95c-50,52 -96,95 -103,95c-6,0 -16,-11 -23,-25c-19,-42 7,-80 107,-160c94,-75 126,-110 140,-155c6,-20 5,-23 -6,-14c-119,93 -300,226 -303,223c-2,-2 8,-28 22,-58c34,-68 108,-146 164,-171c46,-21 139,-27 180,-11c21,8 26,5 37,-20c8,-19 36,-43 81,-69c88,-51 110,-79 110,-138l0,-45l-22,20c-13,11 -58,44 -101,73c-43,29 -87,66 -99,83c-18,25 -22,27 -30,13c-16,-28 -65,-47 -104,-40c-52,10 -140,80 -218,173c-63,75 -69,80 -82,64c-7,-10 -14,-36 -14,-59c0,-45 -18,-67 -63,-78c-40,-9 -30,-27 31,-55c28,-14 55,-33 58,-44c6,-18 8,-17 34,8c25,24 34,27 67,20c84,-15 103,-51 103,-202l0,-92l-32,11c-18,6 -79,58 -138,116c-104,103 -147,133 -205,146c-27,5 -22,-1 40,-57c38,-34 94,-86 124,-116l54,-54l-27,-24c-52,-45 -84,-27 -159,89c-48,74 -78,95 -114,79l-26,-12l46,-43c49,-45 61,-81 30,-93c-12,-5 -27,6 -53,35c-28,33 -42,42 -68,42l-32,0l25,57c14,31 72,138 129,237c144,251 190,346 241,493c8,25 78,-30 218,-171zm-82,-805c19,-20 29,-40 29,-60c0,-30 -1,-31 -46,-31c-74,0 -113,30 -114,88c0,32 0,32 51,32c43,0 55,-5 80,-29z"/>
   <path fill="#ca162c" id="svg_10" d="m5837,10906c-43,-16 -77,-43 -77,-61c0,-15 135,-105 200,-134c58,-26 113,-26 166,0c68,32 73,46 22,59c-24,7 -50,18 -59,26c-15,13 -23,12 -74,-11c-32,-14 -61,-23 -64,-20c-3,4 3,27 13,53c10,26 20,59 23,75l5,27l-58,0c-33,-1 -76,-7 -97,-14z"/>
   <path fill="#ca162c" id="svg_11" d="m4880,10552c0,-22 70,-122 127,-182c164,-174 351,-266 463,-228c27,9 39,18 30,21c-8,2 -35,11 -60,18c-65,20 -138,73 -275,199c-66,61 -143,122 -170,135c-58,29 -115,47 -115,37z"/>
   <path fill="#ca162c" id="svg_12" d="m5393,10365c9,-58 33,-77 87,-73c25,3 53,8 63,12c14,7 17,3 17,-19c0,-16 11,-38 29,-56c56,-55 170,-32 244,49c20,23 37,51 37,62c0,19 -4,20 -52,13c-29,-4 -102,-7 -163,-7c-104,1 -161,13 -249,49c-17,8 -19,5 -13,-30z"/>
   <path fill="#ca162c" id="svg_13" d="m3511,10060c-24,-11 -50,-20 -57,-20c-42,0 -15,-83 41,-126c28,-21 51,-29 95,-32c52,-4 60,-2 88,24c17,16 34,44 37,63c7,30 5,33 -11,27c-113,-44 -165,-26 -130,45c9,18 16,34 16,36c0,9 -40,0 -79,-17z"/>
   <path fill="#ca162c" id="svg_14" d="m4397,9758c100,-196 144,-244 293,-317c58,-28 135,-58 172,-67c116,-29 129,-3 36,73c-35,27 -119,101 -188,163c-176,160 -357,300 -385,300c-3,0 29,-68 72,-152z"/>
   <path fill="#ca162c" id="svg_15" d="m5310,9879c-29,-12 -40,-26 -40,-56c0,-22 3,-23 99,-23c106,0 156,12 171,40c17,32 11,36 -52,38c-35,1 -83,4 -108,6c-25,3 -56,1 -70,-5z"/>
   <path fill="#ca162c" id="svg_16" d="m4055,9817c-29,-22 -15,-87 34,-152c127,-168 322,-354 481,-460c111,-73 366,-205 397,-205c24,0 63,43 63,69c0,9 -64,59 -153,120c-345,238 -476,351 -578,504c-32,49 -59,93 -59,98c0,5 -18,9 -40,9c-22,0 -57,7 -77,15c-43,18 -45,18 -68,2z"/>
   <path fill="#ca162c" id="svg_17" d="m3723,9750c9,-70 48,-131 152,-239c56,-58 107,-116 114,-128c17,-34 13,-100 -10,-145c-17,-32 -18,-43 -8,-47c24,-8 101,-85 189,-191c94,-112 148,-157 202,-169c39,-8 98,0 101,14c1,6 -40,38 -91,71c-132,87 -172,130 -172,183l0,20l48,-20c58,-25 155,-91 285,-192c139,-109 233,-157 352,-181c28,-6 25,-2 -34,55c-75,72 -165,132 -386,257c-184,104 -304,190 -370,265c-25,29 -89,121 -142,205c-87,140 -200,282 -225,282c-7,0 -8,-16 -5,-40z"/>
   <path fill="#ca162c" id="svg_18" d="m3967,9038c25,-24 88,-96 140,-161c147,-185 210,-237 288,-237l35,0l-42,38c-23,20 -92,96 -154,169c-149,172 -225,233 -293,233c-16,0 -11,-9 26,-42z"/>
   <path fill="#ca162c" id="svg_19" d="m3840,8985c0,-14 73,-118 127,-181c33,-38 140,-143 239,-233c215,-198 230,-210 219,-191c-26,47 -93,138 -146,200c-57,66 -439,418 -439,405z"/>
   <path fill="#ca162c" id="svg_20" d="m3214,4458c-29,-97 -24,-194 21,-388c26,-113 40,-200 44,-277l6,-112l42,19c25,11 48,30 54,44c12,26 8,43 -45,181c-25,66 -21,108 14,133c43,33 62,77 63,146c0,78 -24,160 -65,222c-29,43 -88,94 -108,94c-4,0 -15,-28 -26,-62z"/>
   <path fill="#ca162c" id="svg_21" d="m4872,3911c-4,-186 4,-225 52,-257c15,-9 28,-15 30,-13c7,9 48,135 61,193c17,72 20,166 4,166c-6,0 -27,18 -46,40c-28,30 -44,40 -67,40l-31,0l-3,-169z"/>
   <path fill="#ca162c" id="svg_22" d="m240,4036c0,-2 -6,-39 -14,-82c-15,-82 -19,-117 -17,-171c1,-40 44,-89 84,-99l28,-7l-3,158l-3,157l-28,24c-25,21 -47,31 -47,20z"/>
   <path fill="#ca162c" id="svg_23" d="m4000,3840c0,-149 1,-160 19,-160c52,0 101,87 101,182c0,78 -43,138 -97,138c-23,0 -23,0 -23,-160z"/>
   <path fill="#ca162c" id="svg_24" d="m483,3518c0,-68 -8,-168 -16,-223c-9,-55 -19,-134 -23,-176c-6,-71 -5,-77 13,-83c43,-14 71,9 89,71c9,32 24,67 34,78c13,15 15,27 9,50c-5,17 -16,91 -24,165c-8,74 -18,147 -21,162c-5,28 -40,78 -53,78c-3,0 -7,-55 -8,-122z"/>
   <path fill="#ca162c" id="svg_25" d="m3280,3358l0,-237l31,11c94,33 91,202 -8,413l-23,50l0,-237z"/>
   <path fill="#ca162c" id="svg_26" d="m3998,3475c-2,-2 -2,-55 0,-119l3,-116l27,0c60,0 92,53 92,153c0,42 -2,47 -23,47c-12,0 -39,8 -59,19c-21,10 -39,17 -40,16z"/>
   <path fill="#ca162c" id="svg_27" d="m800,2980c0,-130 1,-140 19,-140c27,0 71,39 87,76c18,44 18,118 -1,154c-18,34 -43,50 -79,50l-26,0l0,-140z"/>
   <path fill="#ca162c" id="svg_28" d="m3647,3092c4,-15 8,-144 8,-287c0,-266 3,-291 38,-360l21,-40l13,55c7,30 20,114 29,185c34,269 -2,443 -98,468c-18,5 -19,3 -11,-21z"/>
   <path fill="#ca162c" id="svg_29" d="m581,2159c-41,-125 -62,-410 -42,-589c20,-183 60,-315 117,-383l23,-27l12,37c20,68 23,334 4,468c-19,142 -82,481 -94,510c-7,17 -9,16 -20,-16z"/>
   <path fill="#ca162c" id="svg_30" d="m3675,1791c-9,-16 3,-98 26,-174c10,-34 19,-88 19,-120c0,-56 1,-58 23,-52c109,33 124,230 25,322c-28,27 -82,40 -93,24z"/>
   <path fill="#ca162c" id="svg_31" d="m3316,1348c-2,-7 -9,-76 -15,-153c-7,-77 -19,-214 -27,-305c-17,-199 -19,-519 -4,-613c17,-109 49,-193 90,-240l38,-42l23,75c37,118 32,291 -16,585c-46,283 -55,433 -31,536c10,41 19,84 22,97c8,40 -69,97 -80,60z"/>
   <path fill="#ca162c" id="svg_32" d="m3715,1195c-7,-86 0,-115 29,-115c6,0 29,34 50,76c42,82 42,78 -16,109c-50,28 -55,22 -63,-70z"/>
  </g>
 </g>
</svg>