<svg width="353.176" height="353.176" xmlns="http://www.w3.org/2000/svg">

 <g>
  <title>background</title>
  <rect fill="none" id="canvas_background" height="602" width="802" y="-1" x="-1"/>
 </g>
 <g>
  <title>Layer 1</title>
  <g id="svg_1">
   <g id="svg_2">
    <g id="svg_3">
     <polygon fill="#febf10" id="svg_4" points="0.261,321.306 31.608,353.176 195.135,189.649 163.265,158.302    "/>
     <polygon fill="#febf10" id="svg_5" points="174.759,146.808 206.106,178.155 246.857,137.927 214.988,106.58    "/>
     <path fill="#febf10" id="svg_6" d="m278.727,82.547c2.12,0.11 4.193,-0.644 5.747,-2.09l37.094,-37.094c2.597,-3.462 1.895,-8.375 -1.567,-10.971c-2.786,-2.09 -6.618,-2.09 -9.404,0l-37.094,37.094c-2.987,3.047 -2.987,7.924 0,10.971c1.392,1.366 3.273,2.118 5.224,2.09z"/>
     <path fill="#febf10" id="svg_7" d="m345.078,112.327l-52.245,0c-4.328,0 -7.837,3.509 -7.837,7.837c0,4.328 3.509,7.837 7.837,7.837l52.245,0c4.328,0 7.837,-3.509 7.837,-7.837c-0.001,-4.329 -3.509,-7.837 -7.837,-7.837z"/>
     <path fill="#febf10" id="svg_8" d="m321.567,187.559l-37.094,-37.094c-3.22,-2.529 -7.751,-2.529 -10.971,0c-3.052,3.224 -3.052,8.27 0,11.494l37.094,36.571c1.303,1.559 3.196,2.505 5.224,2.612c2.183,-0.086 4.246,-1.024 5.747,-2.612c3.03,-2.672 3.32,-7.294 0.648,-10.324c-0.202,-0.228 -0.418,-0.445 -0.648,-0.647z"/>
     <path fill="#febf10" id="svg_9" d="m192,80.457c3.315,2.813 8.179,2.813 11.494,0c2.529,-3.22 2.529,-7.751 0,-10.971l-37.094,-37.094c-3.463,-2.597 -8.375,-1.895 -10.971,1.567c-2.09,2.786 -2.09,6.618 0,9.404l36.571,37.094z"/>
     <path fill="#febf10" id="svg_10" d="m232.751,67.918c4.328,0 7.837,-3.509 7.837,-7.837l0,-52.244c0,-4.328 -3.509,-7.837 -7.837,-7.837c-4.328,0 -7.837,3.509 -7.837,7.837l0,52.245c0,4.328 3.509,7.836 7.837,7.836z"/>
    </g>
   </g>
  </g>
  <g id="svg_11"/>
  <g id="svg_12"/>
  <g id="svg_13"/>
  <g id="svg_14"/>
  <g id="svg_15"/>
  <g id="svg_16"/>
  <g id="svg_17"/>
  <g id="svg_18"/>
  <g id="svg_19"/>
  <g id="svg_20"/>
  <g id="svg_21"/>
  <g id="svg_22"/>
  <g id="svg_23"/>
  <g id="svg_24"/>
  <g id="svg_25"/>
 </g>
</svg>